<svg xmlns="http://www.w3.org/2000/svg" xmlns:xlink="http://www.w3.org/1999/xlink" version="1.1" x="0px" y="0px" viewBox="0 0 100 125" enable-background="new 0 0 100 100" xml:space="preserve"><path d="M83,88V11H31v19.117C20.461,30.5,12,39.169,12,49.8c0,10.63,8.461,19.3,19,19.685V88h-4v2h4h52h4v-2H83z M63,44v-4.066  l10.484,9.221L63,58.376V54h-6h-6.021c0.026-0.123,0.057-0.244,0.082-0.368c0.021-0.104,0.03-0.214,0.051-0.319  c0.084-0.461,0.158-0.924,0.209-1.388c0.007-0.057,0.016-0.112,0.021-0.17c0.008-0.077,0.008-0.155,0.014-0.233  c0.054-0.573,0.086-1.147,0.086-1.722c0-0.577-0.033-1.152-0.086-1.725c-0.006-0.076-0.006-0.154-0.014-0.23  c-0.016-0.154-0.046-0.304-0.064-0.457c-0.041-0.337-0.092-0.673-0.151-1.008c-0.024-0.137-0.038-0.277-0.063-0.412  c-0.029-0.146-0.065-0.288-0.099-0.433c-0.052-0.23-0.116-0.458-0.177-0.687c-0.042-0.159-0.078-0.319-0.123-0.477  c-0.02-0.066-0.032-0.135-0.053-0.201c-0.016-0.056-0.026-0.115-0.043-0.171H57L63,44L63,44z M24.814,46.306l4.826,4.826  l10.026-10.026l2.828,2.828L29.64,56.788l-7.654-7.654L24.814,46.306z M33,88V69.467c0.064-0.004,0.126-0.017,0.19-0.021  c0.484-0.035,0.961-0.094,1.435-0.163c0.149-0.022,0.298-0.043,0.445-0.068c0.505-0.087,1-0.194,1.492-0.319  c0.102-0.025,0.203-0.051,0.304-0.078c0.532-0.145,1.054-0.311,1.567-0.496c0.048-0.019,0.096-0.035,0.144-0.053  c5.578-2.078,9.966-6.599,11.851-12.267H57v25.097l22,5.695V14.208l-22,5.699V42h-7.175c-2.128-4.921-6.211-8.792-11.259-10.669  c-0.041-0.015-0.081-0.03-0.122-0.044c-0.521-0.19-1.049-0.358-1.589-0.504c-0.093-0.025-0.186-0.048-0.279-0.072  c-0.5-0.127-1.004-0.237-1.519-0.325c-0.136-0.023-0.274-0.042-0.411-0.062c-0.486-0.073-0.975-0.131-1.471-0.168  c-0.059-0.004-0.116-0.016-0.175-0.021V13h48v75H33z"/></svg>